<svg xmlns="http://www.w3.org/2000/svg" fill="none" viewBox="0 0 200 200" stroke-width=".75"><g id="Work-Video-conference-01"><g id="color 2"><path id="Vector" fill="#FECFC4" d="M95.0399 17.664C87.5829 17.872 81.7019 23.564 81.9099 30.376C82.1379 38.306 90.2959 43.752 98.4739 41.968L98.0369 36.826C97.9418 35.9738 98.0156 35.1112 98.2541 34.2875C98.4926 33.4639 98.891 32.6953 99.4267 32.0257C99.9624 31.3561 100.625 30.7986 101.376 30.3851C102.127 29.9717 102.953 29.7103 103.805 29.616L108.871 29.18C108.454 22.578 102.344 17.455 95.0399 17.664Z"></path><path id="Subtract" fill="#FECFC4" fill-rule="evenodd" d="M87.9819 150.836L148.771 145.713C150.431 145.571 151.967 144.776 153.041 143.502C154.116 142.228 154.641 140.58 154.501 138.92L150.972 97.464C150.83 95.804 150.035 94.2684 148.761 93.1941C147.488 92.1198 145.84 91.5947 144.18 91.734L111.7 94.467C111.126 95.3423 110.752 95.7983 109.89 96.4759C108.965 97.1832 107.886 97.6604 106.74 97.8681C105.595 98.0757 104.416 98.0077 103.302 97.6699C102.188 97.332 101.17 96.7339 100.333 95.925C100.185 95.7791 100.037 95.6327 99.8893 95.4859L89.7565 96.3371C93.1178 108.266 93.4708 116.542 93.7177 128.361C93.9222 131.835 93.4466 135.316 92.3177 138.607L87.9819 150.836ZM123.385 123.856L129.514 126.721L128.413 113.705L122.854 117.575C122.659 116.349 122.006 115.243 121.027 114.479C120.048 113.715 118.817 113.351 117.58 113.459L105.721 114.484C105.076 114.537 104.448 114.718 103.872 115.015C103.297 115.312 102.787 115.721 102.371 116.217C101.954 116.712 101.641 117.286 101.447 117.904C101.254 118.521 101.185 119.171 101.244 119.816L101.718 125.316C101.771 125.961 101.952 126.589 102.249 127.164C102.546 127.739 102.955 128.25 103.451 128.666C103.946 129.082 104.52 129.396 105.137 129.59C105.755 129.783 106.405 129.852 107.05 129.793L118.889 128.807C119.533 128.752 120.161 128.57 120.735 128.272C121.309 127.974 121.818 127.565 122.234 127.07C122.65 126.575 122.964 126.002 123.158 125.385C123.314 124.889 123.391 124.372 123.385 123.854L123.385 123.856Z" clip-rule="evenodd"></path><path id="Vector_2" fill="#FECFC4" d="M167.934 97.635C167.986 98.088 167.947 98.5468 167.82 98.9848C167.693 99.4228 167.481 99.8314 167.196 100.187C166.91 100.543 166.557 100.838 166.157 101.056C165.757 101.275 165.317 101.412 164.864 101.459C164.41 101.507 163.952 101.464 163.515 101.334C163.078 101.203 162.671 100.988 162.318 100.699C161.965 100.41 161.673 100.055 161.458 99.6527C161.243 99.2506 161.11 98.8099 161.066 98.356L160.516 93.156C160.429 92.2496 160.703 91.3454 161.279 90.6402C161.856 89.9351 162.687 89.4861 163.593 89.3911C164.498 89.296 165.405 89.5625 166.115 90.1326C166.825 90.7027 167.281 91.5302 167.384 92.435L167.934 97.635Z"></path></g><g id="color 1"><path id="Vector_3" fill="#6153BD" d="M129.874 34.967C130.168 35.657 130.391 36.3755 130.538 37.111C131.107 35.9159 131.443 34.6231 131.527 33.302C130.938 33.947 130.387 34.493 129.874 34.967Z"></path><path id="Vector_4" fill="#6153BD" d="M78.2859 61.055C78.4491 61.9523 78.7568 62.8172 79.1969 63.616C80.6579 63.616 82.2709 63.427 82.6689 62.839C82.7259 62.739 82.7829 62.63 82.8399 62.516C82.2899 63.6 80.2999 62.5 78.2859 61.055Z"></path><path id="Vector_5" fill="#6153BD" d="M28.0649 103.251C24.5359 98.185 2.09094 116.684 5.31594 121.351L5.86594 121.844C10.5339 124.444 30.8159 107.236 28.0649 103.251Z"></path><path id="Vector_6" fill="#6153BD" d="M66.466 168.556C61.854 170.749 76.117 196.478 80.466 192.823C83.068 189.047 70.109 166.811 66.466 168.556Z"></path><path id="Vector_7" fill="#6153BD" d="M23.0749 119.34C22.986 119.667 22.9605 120.009 22.9999 120.346C23.1899 121.56 24.7449 121.617 25.7889 121.332C25.0578 120.459 24.1267 119.776 23.0749 119.34Z"></path><path id="Vector_8" fill="#6153BD" d="M33.1489 109.436C33.8699 110.328 34.6099 111.219 35.2739 112.036C35.3851 111.718 35.4553 111.386 35.4829 111.05C35.5019 110.765 35.4465 110.479 35.3222 110.222C35.1979 109.964 35.0089 109.744 34.7737 109.581C34.5386 109.418 34.2652 109.32 33.9805 109.294C33.6957 109.269 33.4092 109.318 33.1489 109.436Z"></path><path id="Vector_9" fill="#6153BD" d="M67.6799 71C67.4697 71.0226 67.2709 71.1069 67.1086 71.2425C66.9464 71.378 66.828 71.5586 66.7683 71.7615C66.7087 71.9643 66.7106 72.1803 66.7737 72.3821C66.8369 72.5838 66.9584 72.7624 67.123 72.8951C67.2876 73.0278 67.4878 73.1087 67.6984 73.1276C67.909 73.1465 68.1204 73.1025 68.306 73.0013C68.4916 72.9 68.643 72.746 68.741 72.5587C68.8391 72.3714 68.8794 72.1592 68.8569 71.949C68.8439 71.8086 68.8028 71.6723 68.7362 71.5481C68.6696 71.4238 68.5787 71.3142 68.469 71.2257C68.3592 71.1373 68.2328 71.0717 68.0973 71.0329C67.9618 70.9941 67.8198 70.9829 67.6799 71Z"></path><path id="Vector_10" fill="#6153BD" d="M60.0909 79.819C59.8807 79.8416 59.6819 79.9259 59.5196 80.0615C59.3574 80.197 59.239 80.3776 59.1794 80.5805C59.1197 80.7833 59.1216 80.9993 59.1847 81.2011C59.2479 81.4028 59.3694 81.5814 59.534 81.7141C59.6986 81.8468 59.8988 81.9277 60.1094 81.9466C60.32 81.9655 60.5314 81.9215 60.717 81.8203C60.9026 81.719 61.054 81.565 61.1521 81.3777C61.2501 81.1904 61.2904 80.9782 61.2679 80.768C61.2532 80.6283 61.2111 80.4929 61.1439 80.3695C61.0767 80.2461 60.9858 80.1372 60.8765 80.049C60.7671 79.9609 60.6414 79.8952 60.5066 79.8557C60.3718 79.8162 60.2305 79.8037 60.0909 79.819Z"></path><path id="Vector_11" fill="#6153BD" d="M64.588 91.469C64.3777 91.4914 64.1788 91.5756 64.0164 91.711C63.854 91.8465 63.7354 92.0271 63.6757 92.2299C63.6159 92.4327 63.6176 92.6488 63.6807 92.8506C63.7437 93.0525 63.8652 93.2311 64.0297 93.3639C64.1943 93.4967 64.3946 93.5777 64.6052 93.5967C64.8158 93.6156 65.0273 93.5717 65.213 93.4705C65.3986 93.3692 65.55 93.2152 65.6481 93.0278C65.7462 92.8405 65.7865 92.6283 65.764 92.418C65.7491 92.2784 65.707 92.1432 65.6398 92.0199C65.5727 91.8967 65.4819 91.7879 65.3727 91.6998C65.2635 91.6116 65.1379 91.5459 65.0033 91.5063C64.8687 91.4667 64.7275 91.454 64.588 91.469Z"></path><path id="Vector_12" fill="#6153BD" d="M54.7219 77.808C54.5116 77.8304 54.3127 77.9146 54.1503 78.0501C53.9879 78.1855 53.8693 78.3661 53.8096 78.5689C53.7498 78.7718 53.7516 78.9878 53.8146 79.1896C53.8776 79.3915 53.9991 79.5701 54.1637 79.7029C54.3282 79.8357 54.5285 79.9167 54.7391 79.9357C54.9497 79.9547 55.1612 79.9107 55.3469 79.8095C55.5325 79.7082 55.684 79.5542 55.782 79.3668C55.8801 79.1795 55.9204 78.9673 55.8979 78.757C55.8831 78.6175 55.8409 78.4822 55.7737 78.359C55.7066 78.2357 55.6158 78.1269 55.5066 78.0388C55.3974 77.9506 55.2718 77.8849 55.1372 77.8453C55.0026 77.8057 54.8614 77.793 54.7219 77.808Z"></path><path id="Vector_13" fill="#6153BD" d="M76.7119 75.171C76.5016 75.1934 76.3026 75.2777 76.1402 75.4132C75.9778 75.5487 75.8593 75.7293 75.7996 75.9322C75.7399 76.1351 75.7417 76.3512 75.8048 76.553C75.8679 76.7549 75.9895 76.9335 76.1542 77.0662C76.3189 77.199 76.5192 77.2799 76.7299 77.2987C76.9405 77.3176 77.1521 77.2735 77.3377 77.1721C77.5233 77.0707 77.6746 76.9165 77.7726 76.729C77.8705 76.5416 77.9107 76.3293 77.8879 76.119C77.8729 75.9795 77.8307 75.8444 77.7635 75.7213C77.6963 75.5981 77.6055 75.4894 77.4963 75.4014C77.3871 75.3134 77.2616 75.2477 77.127 75.2082C76.9924 75.1686 76.8514 75.156 76.7119 75.171Z"></path><path id="Vector_14" fill="#6153BD" d="M70.526 83.823C70.3157 83.8456 70.1169 83.93 69.9547 84.0656C69.7924 84.2012 69.674 84.3819 69.6144 84.5848C69.5549 84.7877 69.5568 85.0037 69.6201 85.2055C69.6833 85.4073 69.8049 85.5858 69.9696 85.7184C70.1343 85.8511 70.3346 85.9319 70.5452 85.9507C70.7559 85.9694 70.9673 85.9253 71.1529 85.8239C71.3384 85.7225 71.4897 85.5683 71.5876 85.3809C71.6856 85.1935 71.7257 84.9812 71.703 84.771C71.6882 84.6314 71.6459 84.4961 71.5787 84.3728C71.5115 84.2496 71.4206 84.1408 71.3112 84.0527C71.2019 83.9646 71.0763 83.899 70.9415 83.8596C70.8068 83.8202 70.6655 83.8077 70.526 83.823Z"></path><path id="Vector_15" fill="#6153BD" d="M81.6259 87.845C81.4157 87.8674 81.2167 87.9516 81.0543 88.087C80.8919 88.2225 80.7734 88.4031 80.7136 88.6059C80.6539 88.8088 80.6556 89.0248 80.7186 89.2266C80.7817 89.4285 80.9031 89.6071 81.0677 89.7399C81.2323 89.8727 81.4325 89.9537 81.6431 89.9727C81.8538 89.9917 82.0653 89.9477 82.2509 89.8465C82.4366 89.7452 82.588 89.5912 82.6861 89.4038C82.7842 89.2165 82.8245 89.0043 82.8019 88.794C82.7871 88.6544 82.7449 88.5192 82.6778 88.3959C82.6106 88.2727 82.5198 88.1639 82.4106 88.0758C82.3014 87.9876 82.1759 87.9219 82.0413 87.8823C81.9066 87.8427 81.7655 87.83 81.6259 87.845Z"></path><path id="Vector_16" fill="#6153BD" d="M86.2359 69.441C86.0257 69.4634 85.8267 69.5476 85.6643 69.683C85.5019 69.8185 85.3834 69.9991 85.3236 70.2019C85.2638 70.4048 85.2656 70.6208 85.3286 70.8226C85.3917 71.0245 85.5131 71.2031 85.6777 71.3359C85.8423 71.4687 86.0425 71.5497 86.2531 71.5687C86.4637 71.5877 86.6753 71.5437 86.8609 71.4425C87.0466 71.3412 87.198 71.1872 87.2961 70.9998C87.3942 70.8125 87.4345 70.6003 87.4119 70.39C87.3989 70.2497 87.3579 70.1135 87.2913 69.9893C87.2248 69.8652 87.134 69.7556 87.0244 69.6671C86.9147 69.5787 86.7885 69.5131 86.653 69.4742C86.5176 69.4354 86.3758 69.4241 86.2359 69.441Z"></path><path id="Vector_17" fill="#6153BD" d="M96.178 87.389C95.9677 87.4114 95.7687 87.4956 95.6063 87.631C95.444 87.7665 95.3254 87.9471 95.2656 88.1499C95.2059 88.3528 95.2076 88.5688 95.2706 88.7706C95.3337 88.9725 95.4551 89.1511 95.6197 89.2839C95.7843 89.4167 95.9845 89.4977 96.1952 89.5167C96.4058 89.5357 96.6173 89.4917 96.8029 89.3905C96.9886 89.2892 97.14 89.1352 97.2381 88.9478C97.3362 88.7605 97.3765 88.5483 97.3539 88.338C97.3237 88.0563 97.1829 87.798 96.9624 87.6201C96.7419 87.4421 96.4597 87.359 96.178 87.389Z"></path><path id="Vector_18" fill="#6153BD" d="M96.216 77.428C96.3556 77.4133 96.4909 77.3712 96.6142 77.3041C96.7375 77.237 96.8464 77.1462 96.9346 77.037C97.0227 76.9277 97.0884 76.8021 97.128 76.6674C97.1675 76.5327 97.1801 76.3916 97.165 76.252C97.1277 75.9761 96.9842 75.7256 96.7651 75.5538C96.546 75.382 96.2684 75.3025 95.9916 75.3322C95.7147 75.3619 95.4604 75.4985 95.2827 75.7129C95.105 75.9272 95.0179 76.2024 95.04 76.48C95.0547 76.6196 95.0968 76.7549 95.1639 76.8781C95.2311 77.0014 95.3218 77.1102 95.4311 77.1982C95.5404 77.2863 95.6659 77.352 95.8006 77.3914C95.9353 77.4308 96.0765 77.4433 96.216 77.428Z"></path><path id="Vector_19" fill="#6153BD" d="M107.809 89.647C107.599 89.6694 107.4 89.7536 107.237 89.8891C107.075 90.0245 106.956 90.2051 106.897 90.4079C106.837 90.6108 106.839 90.8268 106.902 91.0286C106.965 91.2305 107.086 91.4091 107.251 91.5419C107.415 91.6747 107.616 91.7557 107.826 91.7747C108.037 91.7937 108.248 91.7497 108.434 91.6485C108.62 91.5472 108.771 91.3932 108.869 91.2058C108.967 91.0185 109.007 90.8063 108.985 90.596C108.97 90.4564 108.928 90.3212 108.861 90.1979C108.794 90.0747 108.703 89.9659 108.594 89.8778C108.484 89.7896 108.359 89.7239 108.224 89.6843C108.09 89.6447 107.948 89.632 107.809 89.647Z"></path><path id="Vector_20" fill="#6153BD" d="M109.137 78.34C108.927 78.3624 108.728 78.4467 108.565 78.5822C108.403 78.7177 108.284 78.8983 108.225 79.1012C108.165 79.3041 108.167 79.5202 108.23 79.7221C108.293 79.9239 108.415 80.1025 108.579 80.2353C108.744 80.368 108.944 80.4489 109.155 80.4678C109.366 80.4866 109.577 80.4425 109.763 80.3411C109.948 80.2397 110.1 80.0855 110.198 79.8981C110.296 79.7106 110.336 79.4983 110.313 79.288C110.298 79.1485 110.256 79.0133 110.189 78.8901C110.122 78.7669 110.031 78.6582 109.922 78.5701C109.812 78.482 109.687 78.4164 109.552 78.3769C109.418 78.3374 109.276 78.3249 109.137 78.34Z"></path><path id="Vector_21" fill="#6153BD" d="M118.623 74.545C118.601 74.3347 118.516 74.1358 118.381 73.9734C118.245 73.811 118.065 73.6924 117.862 73.6327C117.659 73.5729 117.443 73.5747 117.241 73.6377C117.039 73.7007 116.861 73.8222 116.728 73.9868C116.595 74.1513 116.514 74.3516 116.495 74.5622C116.476 74.7728 116.52 74.9843 116.621 75.17C116.723 75.3556 116.877 75.5071 117.064 75.6052C117.251 75.7032 117.464 75.7436 117.674 75.721C117.814 75.7062 117.949 75.664 118.072 75.5968C118.195 75.5297 118.304 75.4389 118.392 75.3297C118.48 75.2205 118.546 75.095 118.586 74.9603C118.625 74.8257 118.638 74.6846 118.623 74.545Z"></path><path id="Vector_22" fill="#6153BD" d="M150.289 15.178C150.173 13.7069 149.537 12.3252 148.494 11.2814C147.45 10.2376 146.069 9.6001 144.598 9.48346C143.127 9.36681 141.663 9.77869 140.468 10.6451C139.273 11.5114 138.427 12.7755 138.081 14.21C136.367 13.4123 134.476 13.0694 132.591 13.2144C130.706 13.3594 128.891 13.9874 127.319 15.0379C125.747 16.0884 124.472 17.5259 123.617 19.2121C122.762 20.8983 122.356 22.7762 122.437 24.665C124.722 24.0456 127.071 23.6889 129.437 23.602C129.565 24.3792 129.742 25.1474 129.968 25.902C130.177 26.376 130.499 26.414 131.068 25.541C132.34 23.701 134.92 26.547 131.903 28.748C133.205 31.0016 134.859 33.0323 136.803 34.763C139.186 33.9954 141.238 32.4421 142.624 30.3569C144.009 28.2718 144.646 25.7783 144.431 23.284C144.392 22.8263 144.325 22.3715 144.231 21.922C144.368 21.9227 144.504 21.915 144.64 21.899C145.452 21.8286 146.243 21.599 146.966 21.2231C147.69 20.8473 148.332 20.3326 148.856 19.7085C149.381 19.0844 149.778 18.3631 150.023 17.5857C150.269 16.8084 150.359 15.9902 150.289 15.178Z"></path><path id="Vector_23" fill="#6153BD" d="M69.881 115.147L70.09 122.847L72.8 120.4C71.6182 118.773 70.638 117.01 69.881 115.147Z"></path><path id="Vector_24" fill="#6153BD" d="M87.299 79.99L89.9929 83.823L90.1449 88.737L87.299 79.99Z"></path><path id="Vector_25" fill="#6153BD" d="M82.6499 54.016C82.98 53.9556 83.2777 53.7796 83.4899 53.5197C83.7021 53.2597 83.8149 52.9328 83.808 52.5973C83.8012 52.2618 83.6752 51.9397 83.4525 51.6886C83.2299 51.4376 82.9252 51.2739 82.5929 51.227C82.8499 51.0392 83.0362 50.7703 83.1218 50.4637C83.2074 50.1571 83.1872 49.8306 83.0645 49.5368C82.9418 49.2431 82.7238 48.9992 82.4456 48.8445C82.1674 48.6898 81.8452 48.6332 81.5309 48.684C81.6919 48.4167 81.7602 48.1037 81.7253 47.7936C81.6903 47.4835 81.5541 47.1936 81.3376 46.9688C81.1211 46.744 80.8365 46.5969 80.528 46.5503C80.2194 46.5037 79.9041 46.5602 79.6309 46.711C79.6962 46.3927 79.6505 46.0617 79.5013 45.773C79.3522 45.4844 79.1086 45.2555 78.8112 45.1247C78.5138 44.9938 78.1806 44.9688 77.867 45.0539C77.5534 45.1389 77.2784 45.3288 77.0879 45.592C77.0572 45.25 76.9082 44.9294 76.6665 44.6855C76.4248 44.4416 76.1056 44.2897 75.7638 44.2559C75.4221 44.2222 75.0793 44.3087 74.7946 44.5005C74.5098 44.6924 74.3009 44.9776 74.2039 45.307C74.0697 45.0115 73.8384 44.7709 73.5484 44.6252C73.2584 44.4795 72.9273 44.4375 72.6101 44.5062C72.2929 44.575 72.0089 44.7503 71.8052 45.003C71.6016 45.2557 71.4907 45.5705 71.4909 45.895C71.2541 45.6914 70.957 45.5713 70.6453 45.5532C70.3336 45.535 70.0246 45.6198 69.7658 45.7945C69.507 45.9692 69.3128 46.2241 69.213 46.52C69.1133 46.8159 69.1136 47.1363 69.2139 47.432C68.9188 47.3222 68.5955 47.3139 68.2952 47.4086C67.9949 47.5033 67.7348 47.6955 67.5562 47.9548C67.3775 48.2141 67.2905 48.5256 67.3089 48.8399C67.3274 49.1542 67.4502 49.4534 67.6579 49.69C67.3231 49.6716 66.9925 49.7722 66.7246 49.9739C66.4568 50.1756 66.2688 50.4654 66.1939 50.7923C66.119 51.1191 66.162 51.4619 66.3154 51.7601C66.4687 52.0584 66.7225 52.2928 67.0319 52.422C66.703 52.4857 66.4074 52.6641 66.1978 52.9254C65.9882 53.1867 65.8781 53.5139 65.8872 53.8487C65.8964 54.1836 66.0241 54.5044 66.2476 54.7538C66.4712 55.0033 66.776 55.1653 67.1079 55.211C66.8563 55.4019 66.6758 55.6714 66.5951 55.9767C66.5144 56.2821 66.5382 56.6056 66.6626 56.8958C66.787 57.1861 67.005 57.4264 67.2817 57.5784C67.5585 57.7305 67.8782 57.7856 68.1899 57.735C68.0326 58.0036 67.9681 58.3165 68.0063 58.6254C68.0444 58.9343 68.1832 59.2221 68.4011 59.4443C68.619 59.6665 68.904 59.8109 69.2121 59.8551C69.5202 59.8994 69.8343 59.841 70.1059 59.689C70.0431 60.0066 70.091 60.3361 70.2415 60.6227C70.392 60.9093 70.6362 61.1357 70.9332 61.2642C71.2303 61.3928 71.5625 61.4158 71.8745 61.3293C72.1864 61.2428 72.4594 61.0522 72.6479 60.789C72.6644 61.0259 72.7394 61.255 72.8662 61.4558C72.993 61.6566 73.1677 61.8227 73.3745 61.9394C73.5814 62.056 73.8139 62.1195 74.0513 62.1242C74.2888 62.1288 74.5236 62.0745 74.7349 61.966C74.9059 61.757 77.2349 58.892 78.0559 57.848C76.0449 55.572 77.7139 54.092 78.7959 55.591C79.3649 56.407 80.1959 56.179 79.7059 53.75C80.3346 53.4766 80.937 53.1466 81.5059 52.764C81.9059 54.3 82.2059 55.61 82.4539 56.71C82.742 56.6346 82.9992 56.4709 83.1896 56.2419C83.38 56.0129 83.494 55.7301 83.5156 55.4331C83.5372 55.1361 83.4653 54.8398 83.3101 54.5857C83.1549 54.3316 82.924 54.1324 82.6499 54.016Z"></path></g><g id="outlines"><path id="Vector_26" stroke="#120071" stroke-linecap="round" stroke-linejoin="round" d="M82.46 56.71C82.214 55.61 81.91 54.301 81.512 52.764C80.9431 53.1466 80.3407 53.4766 79.712 53.75C80.206 56.179 79.377 56.402 78.802 55.591C77.732 54.083 76.051 55.572 78.062 57.848C77.246 58.892 74.912 61.757 74.741 61.966C74.5297 62.0745 74.2949 62.1288 74.0574 62.1242C73.82 62.1195 73.5875 62.056 73.3806 61.9394C73.1738 61.8227 72.9991 61.6565 72.8723 61.4558C72.7455 61.255 72.6705 61.0259 72.654 60.789C72.4655 61.0521 72.1925 61.2428 71.8806 61.3293C71.5686 61.4157 71.2364 61.3928 70.9394 61.2642C70.6423 61.1356 70.3981 60.9092 70.2476 60.6226C70.0971 60.3361 70.0492 60.0066 70.112 59.689C69.8404 59.841 69.5263 59.8993 69.2182 59.8551C68.9101 59.8109 68.6251 59.6665 68.4072 59.4443C68.1893 59.222 68.0505 58.9343 68.0124 58.6254C67.9742 58.3165 68.0387 58.0036 68.196 57.735C67.8843 57.7856 67.5646 57.7305 67.2878 57.5784C67.0111 57.4263 66.7931 57.186 66.6687 56.8958C66.5443 56.6056 66.5205 56.282 66.6012 55.9767C66.6819 55.6714 66.8624 55.4019 67.114 55.211C66.7821 55.1653 66.4773 55.0033 66.2537 54.7538C66.0302 54.5043 65.9025 54.1836 65.8933 53.8487C65.8842 53.5139 65.9943 53.1866 66.2039 52.9253C66.4135 52.6641 66.7091 52.4857 67.038 52.422C66.7286 52.2928 66.4748 52.0583 66.3214 51.7601C66.1681 51.4619 66.1251 51.1191 66.2 50.7923C66.2749 50.4654 66.4629 50.1755 66.7307 49.9738C66.9986 49.7722 67.3292 49.6716 67.664 49.69C67.4563 49.4534 67.3334 49.1542 67.315 48.8399C67.2966 48.5255 67.3836 48.214 67.5623 47.9548C67.7409 47.6955 68.001 47.5033 68.3013 47.4086C68.6016 47.3139 68.9249 47.3221 69.22 47.432C69.1226 47.1371 69.1242 46.8185 69.2247 46.5246C69.3252 46.2308 69.5189 45.9778 69.7765 45.8043C70.034 45.6308 70.3412 45.5463 70.6513 45.5635C70.9614 45.5808 71.2573 45.699 71.494 45.9C71.4938 45.5755 71.6047 45.2606 71.8083 45.0079C72.012 44.7553 72.296 44.5799 72.6132 44.5112C72.9304 44.4425 73.2615 44.4844 73.5515 44.6301C73.8415 44.7758 74.0728 45.0165 74.207 45.312C74.304 44.9826 74.5129 44.6974 74.7977 44.5055C75.0824 44.3136 75.4252 44.2271 75.7669 44.2609C76.1087 44.2947 76.4279 44.4466 76.6696 44.6905C76.9113 44.9344 77.0603 45.255 77.091 45.597C77.2815 45.3338 77.5565 45.1439 77.8701 45.0588C78.1837 44.9738 78.5169 44.9988 78.8143 45.1297C79.1117 45.2605 79.3553 45.4893 79.5044 45.778C79.6536 46.0667 79.6993 46.3977 79.634 46.716C79.9072 46.5652 80.2225 46.5087 80.5311 46.5553C80.8396 46.6019 81.1242 46.749 81.3407 46.9738C81.5572 47.1986 81.6934 47.4885 81.7284 47.7986C81.7633 48.1087 81.695 48.4217 81.534 48.689C81.8483 48.6382 82.1705 48.6947 82.4487 48.8494C82.7269 49.0041 82.9449 49.248 83.0676 49.5418C83.1903 49.8355 83.2105 50.162 83.1249 50.4687C83.0394 50.7753 82.853 51.0442 82.596 51.232C82.9283 51.2789 83.233 51.4425 83.4556 51.6936C83.6782 51.9447 83.8043 52.2668 83.8111 52.6022C83.818 52.9377 83.7052 53.2647 83.493 53.5247C83.2808 53.7846 82.9831 53.9605 82.653 54.021C82.9253 54.1381 83.1544 54.3371 83.3085 54.5903C83.4625 54.8435 83.5339 55.1385 83.5127 55.4341C83.4915 55.7298 83.3787 56.0115 83.1901 56.2401C83.0014 56.4688 82.7462 56.633 82.46 56.71Z"></path><path id="Vector_27" stroke="#120071" stroke-linecap="round" stroke-linejoin="round" d="M82.688 48.931L87.773 48.514C88.3801 48.461 88.9916 48.5285 89.5725 48.7128C90.1534 48.897 90.6921 49.1943 91.1576 49.5875C91.6231 49.9808 92.0063 50.4622 92.2851 51.004C92.5639 51.5459 92.7327 52.1376 92.782 52.745L94.167 69.384"></path><path id="Vector_28" stroke="#120071" stroke-linecap="round" stroke-linejoin="round" d="M90.334 88.471L91.112 88.414C91.7912 88.4064 92.4547 88.2093 93.028 87.845"></path><path id="Vector_29" stroke="#120071" stroke-linecap="round" stroke-linejoin="round" d="M55.12 91.427L44.913 92.3C43.6881 92.4025 42.4727 92.0145 41.5336 91.2214C40.5946 90.4282 40.0089 89.2948 39.905 88.07L37.305 57.409C37.202 56.1837 37.5899 54.9677 38.3833 54.0284C39.1767 53.0891 40.3108 52.5033 41.536 52.4L66.4935 50.2973"></path><path id="Vector_30" stroke="#120071" stroke-linecap="round" stroke-linejoin="round" d="M87.9819 150.836L148.771 145.713C150.431 145.571 151.967 144.776 153.041 143.502C154.116 142.228 154.641 140.58 154.501 138.92L150.972 97.464C150.83 95.804 150.035 94.2684 148.761 93.1941C147.488 92.1198 145.84 91.5947 144.18 91.734L111.7 94.467"></path><path id="Vector_31" stroke="#120071" stroke-linecap="round" stroke-linejoin="round" d="M89.7839 96.326L99.8779 95.472"></path><path id="Vector_32" stroke="#120071" stroke-linecap="round" stroke-linejoin="round" d="M122.532 28L103.786 29.613C102.069 29.8046 100.498 30.6689 99.4167 32.0165C98.3356 33.3642 97.8326 35.0853 98.0179 36.803L101.775 80.043"></path><path id="Vector_33" stroke="#120071" stroke-linecap="round" stroke-linejoin="round" d="M115.322 86.384L172.184 81.47C173.446 81.356 174.645 80.8641 175.623 80.0584C176.601 79.2528 177.313 78.1709 177.667 76.954"></path><path id="Vector_34" stroke="#120071" stroke-linecap="round" stroke-linejoin="round" d="M175.846 49.861L174.157 30.224C174.044 28.4988 173.252 26.8888 171.954 25.747C170.655 24.6052 168.957 24.0247 167.232 24.133L144.332 26.107"></path><path id="Vector_35" stroke="#120071" stroke-linecap="round" stroke-linejoin="round" d="M155.032 55.572C153.078 58.645 148.961 67.62 146.57 73.444C151.16 75.2382 155.028 78.5003 157.57 82.722"></path><path id="Vector_36" stroke="#120071" stroke-linecap="round" stroke-linejoin="round" d="M124.467 65.4C125.161 68.9733 126.067 72.5022 127.18 75.968C126.136 79.895 125.719 83.386 125.226 85.53"></path><path id="Vector_37" stroke="#120071" stroke-linecap="round" stroke-linejoin="round" d="M126.288 50.791C124.855 53.0001 124.019 55.5426 123.86 58.171"></path><path id="Vector_38" stroke="#120071" stroke-linecap="round" stroke-linejoin="round" d="M146.551 73.463C141.201 77.315 131.088 79.363 127.18 75.968"></path><path id="Vector_39" stroke="#120071" stroke-linecap="round" stroke-linejoin="round" d="M144.123 74.924C146.977 77.1559 149.264 80.0289 150.8 83.31"></path><path id="Vector_40" stroke="#120071" stroke-linecap="round" stroke-linejoin="round" d="M130.551 37.089C131.111 35.8989 131.442 34.6143 131.527 33.302C130.939 33.947 130.387 34.493 129.874 34.967"></path><path id="Vector_41" stroke="#120071" stroke-linecap="round" stroke-linejoin="round" d="M152.319 60.657L159.112 72.135C164.367 81.66 175.312 84.656 182.183 70.428C185.426 63.711 186.964 59.196 189.81 54.528C185.156 53.2012 180.918 50.7065 177.5 47.281C174.341 52.0354 171.532 57.0128 169.094 62.174C155.339 32.937 153.65 38.092 144.486 37.585C141.69 37.5079 138.997 36.5146 136.821 34.758"></path><path id="Vector_42" stroke="#120071" stroke-linecap="round" stroke-linejoin="round" d="M116.783 60.884C119.496 51.663 125.574 47.401 128.242 44.492C129.497 43.288 130.334 41.7129 130.627 39.9984C130.921 38.2838 130.657 36.5203 129.874 34.967C125.093 39.179 122.456 35.821 122.456 24.667"></path><path id="Vector_43" stroke="#120071" stroke-linecap="round" stroke-linejoin="round" d="M145.641 37.623C141.838 40.6792 138.406 44.1696 135.414 48.023C134.945 48.6067 134.333 49.0589 133.637 49.3352C132.941 49.6115 132.185 49.7026 131.443 49.5995C130.702 49.4964 129.999 49.2027 129.405 48.7471C128.811 48.2915 128.345 47.6895 128.053 47C127.809 46.43 127.597 45.9 127.408 45.387"></path><path id="Vector_44" stroke="#120071" stroke-linecap="round" stroke-linejoin="round" d="M169.091 62.174L166.834 67.259"></path><path id="Vector_45" stroke="#120071" stroke-linecap="round" stroke-linejoin="round" d="M74.738 61.966C72.086 65.366 70.209 65.143 65.214 67.373C55.044 71.908 58.535 90.084 58.535 90.084"></path><path id="Vector_46" stroke="#120071" stroke-linecap="round" stroke-linejoin="round" d="M82.46 56.71C83.289 60.553 83.214 62.024 82.669 62.819C82.269 63.408 80.658 63.597 79.197 63.597"></path><path id="Vector_47" stroke="#120071" stroke-linecap="round" stroke-linejoin="round" d="M82.843 62.5C82.312 63.6 80.298 62.5 78.286 61.039C78.666 62.785 78.931 64.877 80.354 64.966C92.968 65.757 94.3 67.186 105.247 85.966"></path><path id="Vector_48" stroke="#120071" stroke-linecap="round" stroke-linejoin="round" d="M103.9 83.633C104.374 82.305 107.315 76.252 109.023 70.788C112.763 70.3854 116.522 71.3638 119.591 73.539C118.414 79.117 115 87.58 112.058 93.8C111.558 94.8513 110.815 95.7685 109.89 96.4759C108.965 97.1832 107.886 97.6604 106.74 97.868C105.595 98.0757 104.416 98.0077 103.302 97.6699C102.188 97.332 101.17 96.7339 100.333 95.925C95.4209 91.0951 91.0562 85.7385 87.318 79.952"></path><path id="Vector_49" stroke="#120071" stroke-linecap="round" stroke-linejoin="round" d="M87.3369 79.952L90.1449 88.737"></path><path id="Vector_50" stroke="#120071" stroke-linecap="round" stroke-linejoin="round" d="M66.6 95.909C72.235 97.709 81.873 97.028 89.406 94.979C90.544 92.74 90.07 83.899 90.07 83.899"></path><path id="Vector_51" stroke="#120071" stroke-linecap="round" stroke-linejoin="round" d="M66.542 95.472C64.114 98.963 59.342 99.092 57.15 95.453C54.388 90.853 53.204 84.297 52.616 77.011C52.616 77.011 56.916 75.635 58.716 76.174"></path><path id="Vector_52" stroke="#120071" stroke-linecap="round" stroke-linejoin="round" d="M72.8 120.4L52.765 138.14C51.4397 139.306 49.7369 139.952 47.9719 139.959C46.2069 139.965 44.4992 139.332 43.165 138.177L23.454 121.124"></path><path id="Vector_53" stroke="#120071" stroke-linecap="round" stroke-linejoin="round" d="M49.941 123.837L35.028 109.778"></path><path id="Vector_54" stroke="#120071" stroke-linecap="round" stroke-linejoin="round" d="M63.487 76.879C63.487 76.879 66.787 90.179 66.58 96.25C62.5656 98.5318 59.4636 102.132 57.8 106.439C55.377 112.986 46.985 120.953 46.985 120.953"></path><path id="Vector_55" stroke="#120071" stroke-linecap="round" stroke-linejoin="round" d="M89.405 94.979C93.123 107.634 93.493 116.079 93.749 128.333C93.9534 131.807 93.4779 135.287 92.349 138.579L83.66 163.016C78.3458 162.458 73.2373 160.658 68.747 157.761L77.437 132.868C77.6044 128.616 76.1779 124.455 73.437 121.2C70.7236 117.895 69.0237 113.875 68.542 109.626"></path><path id="Vector_56" stroke="#120071" stroke-linecap="round" stroke-linejoin="round" d="M70.375 65.343C70.375 65.343 73.41 68.682 80.62 64.982"></path><path id="Vector_57" stroke="#120071" stroke-linecap="round" stroke-linejoin="round" d="M54.115 76.575C54.0557 73.6801 53.7317 70.7968 53.147 67.961C52.5874 65.7784 51.7855 63.6653 50.756 61.661C49.246 58.717 49.736 57.92 52.161 60.599C54.5557 63.6051 56.5279 66.9245 58.023 70.465"></path><path id="Vector_58" stroke="#120071" stroke-linecap="round" stroke-linejoin="round" d="M57.181 68.59C58.386 69.956 59.107 65.79 59.56 64.868C60.186 63.597 60.96 62.213 60.907 66.121C60.892 67.202 61.021 68.929 61.192 70.636"></path><path id="Vector_59" stroke="#120071" stroke-linecap="round" stroke-linejoin="round" d="M52.0089 64.451C51.4589 63.844 50.2089 62.631 49.8459 62.288C48.1879 60.702 47.8579 61.261 48.0459 61.588C48.7659 62.85 50.1159 64.794 50.7459 65.988C51.7539 67.922 53.7999 71.604 53.9139 73.501"></path><path id="Vector_60" stroke="#120071" stroke-linecap="round" stroke-linejoin="round" d="M50.681 65.874C50.358 65.647 50.091 65.46 49.941 65.362C48.019 64.109 47.816 64.679 48.041 64.962C48.952 66.1 50.606 67.786 51.419 68.87C52.3735 70.2055 53.1992 71.6285 53.885 73.12"></path><path id="Vector_61" stroke="#120071" stroke-linecap="round" stroke-linejoin="round" d="M118.7 72.913C119.718 69.8784 121 66.939 122.533 64.129C123.83 62.0082 125.364 60.0413 127.105 58.266C129.661 55.666 129.405 54.642 125.967 56.672C122.46 59.0671 119.294 61.9264 116.556 65.172"></path><path id="Vector_62" stroke="#120071" stroke-linecap="round" stroke-linejoin="round" d="M118.151 63.372C116.237 64.799 116.943 59.925 116.764 58.778C116.523 57.24 116.176 55.515 114.942 59.67C114.601 60.807 113.215 64.331 110.602 70.692"></path><path id="Vector_63" stroke="#120071" stroke-linecap="round" stroke-linejoin="round" d="M124.865 60.789C125.643 60.315 127.351 59.461 127.844 59.215C130.121 58.076 130.27 58.795 129.988 59.063C128.821 60.172 126.764 61.778 125.719 62.838C124.033 64.549 120.672 67.771 119.913 69.745"></path><path id="Vector_64" stroke="#120071" stroke-linecap="round" stroke-linejoin="round" d="M125.814 62.744C126.231 62.611 126.573 62.498 126.763 62.444C129.195 61.699 129.228 62.423 128.888 62.653C127.554 63.553 125.266 64.8 124.049 65.688C122.609 66.7885 121.276 68.0208 120.065 69.369"></path><path id="Vector_65" stroke="#120071" stroke-linecap="round" stroke-linejoin="round" d="M28.065 103.251C24.688 98.4 3.98697 115.135 5.03897 120.675C5.20197 121.533 5.94397 122.301 7.67497 122.066C14.328 121.165 30.56 106.841 28.065 103.251Z"></path><path id="Vector_66" stroke="#120071" stroke-linecap="round" stroke-linejoin="round" d="M28.0649 103.251C29.1079 104.579 32.6939 108.867 35.2559 112.051"></path><path id="Vector_67" stroke="#120071" stroke-linecap="round" stroke-linejoin="round" d="M81.569 162.751C80.769 165.767 76.279 172.387 79.728 180.87C81.495 185.214 82.517 191.549 80.128 193.143"></path><path id="Vector_68" stroke="#120071" stroke-linecap="round" stroke-linejoin="round" d="M65.859 169.126C66.427 167.846 68.492 163.176 70.337 158.826"></path><path id="Vector_69" stroke="#120071" stroke-linecap="round" stroke-linejoin="round" d="M66.4659 168.556C62.2239 170.573 73.5479 191.311 78.7419 193.203C80.1769 193.726 80.8629 192.703 80.8059 191.18C80.5699 184.844 69.7449 167 66.4659 168.556Z"></path><path id="Vector_70" stroke="#120071" stroke-linecap="round" stroke-linejoin="round" d="M33.131 109.436C33.3911 109.318 33.6774 109.269 33.9621 109.294C34.2468 109.319 34.52 109.418 34.7551 109.581C34.9902 109.743 35.1791 109.964 35.3033 110.221C35.4276 110.479 35.4829 110.764 35.464 111.049C35.15 115.049 27.719 121.901 24.378 121.497C23.378 121.375 22.744 120.668 23.078 119.322"></path><path id="Vector_71" stroke="#120071" stroke-linecap="round" stroke-linejoin="round" d="M82.4769 155.952L88.2999 137.535C89.3104 134.657 89.7361 131.606 89.5519 128.561C88.7449 115.376 87.7689 105.186 85.3969 95.909"></path><path id="Vector_72" stroke="#120071" stroke-linecap="round" stroke-linejoin="round" d="M71.114 150.968C75.421 154.245 80.6374 156.108 86.046 156.3"></path><path id="Vector_73" stroke="#120071" stroke-linecap="round" stroke-linejoin="round" d="M29.0699 125.981C34.8189 124.14 38.0449 119.981 39.9799 114.559"></path><path id="Vector_74" stroke="#120071" stroke-linecap="round" stroke-linejoin="round" d="M69.881 115.147L53.735 129.453C52.4069 130.636 50.6922 131.293 48.9137 131.3C47.1351 131.307 45.4152 130.664 44.078 129.491L35.559 122.015"></path><path id="Vector_75" stroke="#120071" stroke-linecap="round" stroke-linejoin="round" d="M72.613 100.955C72.367 100.993 72.006 105.775 72.651 107.71C73.8848 109.415 75.4619 110.844 77.281 111.903C78.3215 110.17 79.5705 108.57 81 107.141C80.81 104.731 80.582 103.46 80.317 100.917C77.7628 101.282 75.1706 101.295 72.613 100.955V100.955Z"></path><path id="Vector_76" stroke="#120071" stroke-linecap="round" stroke-linejoin="round" d="M61.856 99.988C62.83 100.002 63.7864 100.249 64.645 100.709C62.899 101.562 61.135 105.909 61.135 105.909L57.245 107.769"></path><path id="Vector_77" stroke="#120071" stroke-linecap="round" stroke-linejoin="round" d="M185.294 38C188.294 38.948 189.962 40.485 191.894 42.952"></path><path id="Vector_78" stroke="#120071" stroke-linecap="round" stroke-linejoin="round" d="M184.555 39.407C185.602 40.4696 186.416 41.7387 186.945 43.1333C187.474 44.5279 187.706 46.0174 187.628 47.507"></path><path id="Vector_79" stroke="#120071" stroke-linecap="round" stroke-linejoin="round" d="M190.322 41.076C191.486 39.5424 192.46 37.8732 193.222 36.105C194.622 32.823 195.48 33.734 194.702 36.845C194.493 37.68 194.285 38.401 194.095 39.008C193.547 40.754 193.007 42.517 192.501 44.283C191.964 46.159 188.401 54.092 188.401 54.092C185.062 53.2 181.59 50.772 178.877 48.533C178.934 48.419 180.377 45.764 180.432 45.668C180.726 45.1373 180.851 44.5296 180.79 43.9261C180.729 43.3227 180.485 42.7522 180.091 42.291C178.719 40.645 176.882 38.191 177.491 37.528C178.436 36.501 181.418 39.974 183.012 40.185C183.581 40.26 184.037 38.534 184.131 37.908C184.303 36.77 184.902 32.898 184.947 32.52C185.36 29.002 186.617 29.598 186.598 32.709C186.579 35.669 186.579 37.585 186.579 37.585"></path><path id="Vector_80" stroke="#120071" stroke-linecap="round" stroke-linejoin="round" d="M186.338 38.344C186.338 38.344 188.407 31.856 188.538 31.419C189.567 28.024 190.646 28.801 190.132 31.855C189.64 34.778 189.107 38.344 189.107 38.344"></path><path id="Vector_81" stroke="#120071" stroke-linecap="round" stroke-linejoin="round" d="M188.6 39.388C189.59 37.4037 190.464 35.3636 191.218 33.278C192.448 29.938 193.352 30.791 192.774 33.829C192.457 35.7177 192.007 37.5817 191.427 39.407"></path><path id="Vector_82" stroke="#120071" stroke-linecap="round" stroke-linejoin="round" d="M167.934 97.635C167.986 98.088 167.947 98.5468 167.82 98.9848C167.693 99.4228 167.481 99.8314 167.196 100.187C166.91 100.543 166.557 100.838 166.157 101.056C165.757 101.275 165.317 101.412 164.864 101.459C164.41 101.507 163.952 101.464 163.515 101.334C163.078 101.203 162.671 100.988 162.318 100.699C161.965 100.41 161.673 100.055 161.458 99.6527C161.243 99.2506 161.11 98.8099 161.066 98.356L160.516 93.156C160.429 92.2496 160.703 91.3454 161.279 90.6402C161.856 89.9351 162.687 89.4861 163.593 89.3911C164.498 89.296 165.405 89.5625 166.115 90.1326C166.825 90.7027 167.281 91.5302 167.384 92.435L167.934 97.635Z"></path><path id="Vector_83" stroke="#120071" stroke-linecap="round" stroke-linejoin="round" d="M158.258 96.269L158.523 98.83C158.605 99.6173 158.842 100.381 159.219 101.077C159.596 101.773 160.107 102.388 160.722 102.886C161.336 103.385 162.044 103.757 162.802 103.983C163.561 104.208 164.357 104.282 165.144 104.2C165.932 104.117 166.695 103.881 167.391 103.504C168.087 103.126 168.702 102.616 169.201 102.001C169.699 101.386 170.072 100.679 170.297 99.92C170.522 99.1612 170.596 98.3653 170.514 97.578L170.249 95.017"></path><path id="Vector_84" stroke="#120071" stroke-linecap="round" stroke-linejoin="round" d="M165.145 104.2L165.657 108.981"></path><path id="Vector_85" stroke="#120071" stroke-linecap="round" stroke-linejoin="round" d="M163.096 109.247L168.2 108.715"></path><path id="Vector_86" stroke="#120071" stroke-linecap="round" stroke-linejoin="round" d="M123.385 123.856L129.514 126.721L128.413 113.705L122.854 117.575"></path><path id="Vector_87" stroke="#120071" stroke-linecap="round" stroke-linejoin="round" d="M117.58 113.459C118.817 113.351 120.048 113.715 121.027 114.479C122.006 115.243 122.659 116.349 122.854 117.575L123.366 123.475C123.423 124.119 123.352 124.768 123.158 125.385C122.964 126.002 122.65 126.575 122.234 127.07C121.818 127.565 121.309 127.974 120.735 128.272C120.161 128.57 119.533 128.752 118.889 128.807L107.05 129.793C106.405 129.852 105.755 129.783 105.137 129.59C104.52 129.396 103.946 129.082 103.451 128.666C102.955 128.25 102.546 127.739 102.249 127.164C101.952 126.589 101.771 125.961 101.718 125.316L101.244 119.816C101.185 119.171 101.254 118.521 101.447 117.904C101.641 117.286 101.954 116.712 102.371 116.217C102.787 115.721 103.297 115.312 103.872 115.015C104.448 114.718 105.076 114.537 105.721 114.484L117.58 113.459Z"></path><path id="Vector_88" stroke="#120071" stroke-linecap="round" stroke-linejoin="round" d="M150.289 15.178C150.171 13.7106 149.535 12.3331 148.494 11.292C147.453 10.2508 146.076 9.61397 144.608 9.49538C143.141 9.37679 141.679 9.78419 140.485 10.6447C139.29 11.5052 138.441 12.7626 138.089 14.192C139.647 14.9107 141.015 15.9829 142.086 17.3235C143.157 18.664 143.9 20.2359 144.256 21.914C145.103 21.8944 145.937 21.7013 146.707 21.3466C147.477 20.992 148.165 20.4833 148.731 19.8521C149.296 19.2209 149.726 18.4804 149.994 17.6765C150.262 16.8726 150.362 16.0222 150.289 15.178V15.178Z"></path><path id="Vector_89" stroke="#120071" stroke-linecap="round" stroke-linejoin="round" d="M144.427 23.28C144.188 20.4057 142.832 17.7397 140.649 15.8543C138.467 13.9689 135.632 13.0144 132.753 13.1957C129.875 13.377 127.182 14.6796 125.253 16.824C123.325 18.9684 122.313 21.7835 122.437 24.665C124.722 24.0456 127.071 23.6889 129.437 23.602C129.565 24.3792 129.742 25.1474 129.968 25.902C130.177 26.376 130.499 26.414 131.068 25.541C132.34 23.701 134.92 26.547 131.903 28.748C133.205 31.0016 134.859 33.0323 136.803 34.763C139.186 33.9945 141.238 32.4403 142.623 30.3544C144.007 28.2685 144.644 25.7744 144.427 23.28Z"></path><path id="Vector_90" stroke="#120071" stroke-linecap="round" stroke-linejoin="round" d="M17.3829 87.314L21.3479 86.915"></path><path id="Vector_91" stroke="#120071" stroke-linecap="round" stroke-linejoin="round" d="M28.3679 86.194L32.3339 85.796"></path><path id="Vector_92" stroke="#120071" stroke-linecap="round" stroke-linejoin="round" d="M24.099 79.079L24.498 83.045"></path><path id="Vector_93" stroke="#120071" stroke-linecap="round" stroke-linejoin="round" d="M25.219 90.065L25.617 94.03"></path><path id="Vector_94" stroke="#120071" stroke-linecap="round" stroke-linejoin="round" d="M19.0339 81.812L22.1259 84.316"></path><path id="Vector_95" stroke="#120071" stroke-linecap="round" stroke-linejoin="round" d="M27.59 88.775L30.683 91.298"></path><path id="Vector_96" stroke="#120071" stroke-linecap="round" stroke-linejoin="round" d="M29.6019 80.73L27.0969 83.823"></path><path id="Vector_97" stroke="#120071" stroke-linecap="round" stroke-linejoin="round" d="M22.638 89.287L20.115 92.38"></path><path id="Vector_98" stroke="#120071" stroke-linecap="round" stroke-linejoin="round" d="M109.251 41.892L106.951 36.276C108.357 34.1857 109.037 31.6909 108.886 29.176C108.469 22.576 102.34 17.451 95.036 17.66C87.579 17.868 81.698 23.56 81.906 30.372C82.113 37.563 88.84 42.711 96.189 42.278C98.8215 42.112 101.36 41.2364 103.535 39.744L109.251 41.892Z"></path><path id="Vector_99" stroke="#120071" stroke-linecap="round" stroke-linejoin="round" d="M65.537 39.027C65.1862 39.363 64.7436 39.5875 64.2652 39.672C63.7869 39.7565 63.2942 39.6973 62.8495 39.5018C62.4048 39.3063 62.028 38.9833 61.7669 38.5736C61.5058 38.164 61.372 37.6861 61.3825 37.2004C61.393 36.7148 61.5473 36.2431 61.8259 35.8452C62.1044 35.4472 62.4947 35.1407 62.9475 34.9646C63.4002 34.7885 63.895 34.7506 64.3693 34.8556C64.8435 34.9607 65.276 35.2041 65.612 35.555C66.0609 36.0261 66.305 36.6559 66.2909 37.3065C66.2769 37.9571 66.0058 38.5757 65.537 39.027V39.027Z"></path><path id="Vector_100" stroke="#120071" stroke-linecap="round" stroke-linejoin="round" d="M167.004 6.659L167.858 17.019"></path><path id="Vector_101" stroke="#120071" stroke-linecap="round" stroke-linejoin="round" d="M172.62 11.402L162.261 12.275"></path><path id="Vector_102" stroke="#120071" stroke-linecap="round" stroke-linejoin="round" d="M25.788 121.332C25.0659 120.447 24.134 119.756 23.077 119.322C21.237 118.657 19.432 119.245 17.288 119.853C12.968 121.053 8.33698 123.659 5.90698 121.86"></path><path id="Vector_103" stroke="#120071" stroke-linecap="round" stroke-linejoin="round" d="M70.09 122.85L69.881 115.147"></path></g></g></svg>